PathFileType	4	(X/Y/Z)	/Users/itak/Documents/Research/Walk-IL/dataset/trc/00400_00012.trc
DataRate	CameraRate	NumFrames	NumMarkers	Units	OrigDataRate	OrigDataStartFrame	OrigNumFrames
100.000000	100.000000	4	53	mm	100.000000	0	649
Frame#	Time	RPSI			LPSI			L3			STRN			T10			C7			CLAV			RBAK			LBAK			LSHO			LUPA			LAEL			LAOL			LWTS			LWPS			LFRA			LIFD			LHPS			LHTS			RSHO			RUPA			RAEL			RAOL			RWTS			RWPS			RFRA			RIFD			RHTS			RHPS			RBHD			LFHD			RFHD			LBHD			LHIP			RHIP			RASI			LASI			LKNE			LTHI			LANK			LTIP			LTOE			LMT1			LMT5			LHEE			RKNE			RTHI			RANK			RTIP			RTOE			RMT1			RMT5			RHEE			
		X1	Y1	Z1	X2	Y2	Z2	X3	Y3	Z3	X4	Y4	Z4	X5	Y5	Z5	X6	Y6	Z6	X7	Y7	Z7	X8	Y8	Z8	X9	Y9	Z9	X10	Y10	Z10	X11	Y11	Z11	X12	Y12	Z12	X13	Y13	Z13	X14	Y14	Z14	X15	Y15	Z15	X16	Y16	Z16	X17	Y17	Z17	X18	Y18	Z18	X19	Y19	Z19	X20	Y20	Z20	X21	Y21	Z21	X22	Y22	Z22	X23	Y23	Z23	X24	Y24	Z24	X25	Y25	Z25	X26	Y26	Z26	X27	Y27	Z27	X28	Y28	Z28	X29	Y29	Z29	X30	Y30	Z30	X31	Y31	Z31	X32	Y32	Z32	X33	Y33	Z33	X34	Y34	Z34	X35	Y35	Z35	X36	Y36	Z36	X37	Y37	Z37	X38	Y38	Z38	X39	Y39	Z39	X40	Y40	Z40	X41	Y41	Z41	X42	Y42	Z42	X43	Y43	Z43	X44	Y44	Z44	X45	Y45	Z45	X46	Y46	Z46	X47	Y47	Z47	X48	Y48	Z48	X49	Y49	Z49	X50	Y50	Z50	X51	Y51	Z51	X52	Y52	Z52	X53	Y53	Z53	

1	0	-43.81389617919922	997.245849609375	1237.835693359375	-52.27923965454102	988.2073364257812	1105.276611328125	-44.78060150146484	1064.982788085938	1174.798828125	190.9223327636719	1211.687744140625	1174.197998046875	-52.38292694091797	1167.746337890625	1168.5849609375	-13.11868858337402	1416.274780273438	1155.184936523438	141.8594818115234	1332.058471679688	1169.891967773438	-60.60137176513672	1273.279541015625	1228.352172851562	-19.98720550537109	1376.157836914062	1050.559448242188	71.77777862548828	1389.441528320312	1006.810791015625	71.72523498535156	1272.117309570312	935.2842407226562	132.7702178955078	1080.804321289062	920.0590209960938	63.53776931762695	1048.070678710938	956.5498657226562	235.2309875488281	879.9608154296875	1007.731689453125	222.1137847900391	862.029052734375	928.3284912109375	172.1646575927734	980.5186767578125	920.2470703125	268.7904357910156	701.9475708007812	1006.216674804688	243.4946746826172	779.3312377929688	944.7520141601562	274.2663879394531	787.6661987304688	1000.143371582031	44.46733474731445	1397.679443359375	1317.332153320312	38.37559127807617	1334.765502929688	1380.852783203125	108.5194702148438	1084.449096679688	1443.094604492188	80.88331604003906	1060.802978515625	1356.53125	279.4545593261719	897.95068359375	1426.063232421875	244.1569976806641	885.4937744140625	1489.997436523438	150.4669647216797	1030.088256835938	1463.069702148438	316.05810546875	728.0137939453125	1449.001220703125	319.251708984375	801.0531616210938	1454.672119140625	266.4358825683594	801.0325927734375	1497.607177734375	20.41335296630859	1586.277954101562	1250.658081054688	168.0870361328125	1622.969604492188	1120.707763671875	151.5885314941406	1614.89453125	1242.502685546875	24.47428131103516	1591.61962890625	1088.244262695312	33.34409713745117	970.9434204101562	991.548095703125	42.19392395019531	968.85498046875	1350.637329101562	174.2171936035156	971.9554443359375	1292.414794921875	151.3361053466797	964.9771728515625	1030.327758789062	75.8656005859375	473.6752624511719	1013.604919433594	67.83950805664062	615.5613403320312	1001.552307128906	-3.755894899368286	42.18280410766602	1060.296997070312	31.76302146911621	243.0580902099609	1025.977661132812	211.4773254394531	42.82839202880859	1116.02001953125	132.2636871337891	41.85689926147461	1149.741088867188	122.6451721191406	42.32022094726562	1044.704345703125	-42.39090347290039	39.37642288208008	1117.953735351562	72.85771179199219	476.1630249023438	1327.8466796875	117.0852127075195	738.3033447265625	1346.673461914062	33.01030731201172	56.63405609130859	1291.410522460938	83.08640289306641	351.9635009765625	1312.9814453125	214.9817047119141	40.79784393310547	1234.701782226562	140.2511901855469	45.0289421081543	1202.400512695312	115.6280136108398	45.75270843505859	1300.567138671875	-38.68032073974609	45.10997772216797	1235.287475585938	
2	0.01	-43.80046844482422	997.2473754882812	1237.792724609375	-52.23238372802734	988.20947265625	1105.26953125	-44.72093963623047	1064.944213867188	1174.687377929688	190.9408874511719	1211.705444335938	1174.268676757812	-52.39456939697266	1167.761962890625	1168.53076171875	-13.12076759338379	1416.264892578125	1155.165161132812	141.8785400390625	1332.051513671875	1169.947875976562	-60.64247894287109	1273.227905273438	1228.256103515625	-19.92517280578613	1376.171508789062	1050.56982421875	71.8975830078125	1389.50927734375	1006.844909667969	71.78321075439453	1272.284423828125	935.2322387695312	132.7784729003906	1080.989135742188	919.6373291015625	63.64693450927734	1048.181030273438	956.2810668945312	235.6789703369141	880.2432250976562	1006.862487792969	222.3060913085938	862.3021240234375	927.5111083984375	172.2017211914062	980.740478515625	919.6382446289062	269.5567321777344	702.2903442382812	1005.151306152344	243.8744812011719	779.6453247070312	943.839599609375	274.8656921386719	788.0176391601562	999.0841064453125	44.31809234619141	1397.610717773438	1317.344848632812	38.14670944213867	1334.713256835938	1380.838500976562	107.849609375	1084.3125	1443.068481445312	80.70755767822266	1060.625	1356.569091796875	278.732666015625	897.71630859375	1426.816040039062	243.2616424560547	885.2732543945312	1490.536987304688	149.7665100097656	1029.99853515625	1463.372680664062	315.0552062988281	727.74169921875	1449.878784179688	318.3846130371094	800.802734375	1455.512939453125	265.384033203125	800.8465576171875	1498.325439453125	19.93959045410156	1586.344116210938	1250.325805664062	168.5109558105469	1622.804931640625	1121.420654296875	151.1795196533203	1614.7607421875	1243.038330078125	25.09251403808594	1591.722045898438	1088.06787109375	33.42740249633789	970.9675903320312	991.5498657226562	42.14451217651367	968.8564453125	1350.639404296875	174.1859893798828	971.958984375	1292.44873046875	151.4282073974609	964.9635009765625	1030.341796875	75.908203125	473.6699523925781	1013.605224609375	67.93000030517578	615.5563354492188	1001.5537109375	-3.774961709976196	42.18400192260742	1060.299682617188	31.78585815429688	243.0564117431641	1025.978393554688	211.4799957275391	42.82576370239258	1116.022705078125	132.2582550048828	41.85084915161133	1149.7451171875	122.6447067260742	42.32135772705078	1044.709716796875	-42.39105987548828	39.35617065429688	1117.973266601562	72.87033081054688	476.1660766601562	1327.837158203125	116.9779815673828	738.2879028320312	1346.708374023438	33.01182174682617	56.63571166992188	1291.409301757812	83.12062835693359	351.9734497070312	1312.96630859375	214.9861297607422	40.79948043823242	1234.701293945312	140.2499084472656	45.02820587158203	1202.399658203125	115.632698059082	45.76074600219727	1300.563842773438	-38.68551635742188	45.12154006958008	1235.2822265625	
3	0.02	-43.77902221679688	997.2444458007812	1237.730346679688	-52.16315078735352	988.2078857421875	1105.252563476562	-44.64155578613281	1064.896118164062	1174.546997070312	190.9651489257812	1211.723876953125	1174.362182617188	-52.41292572021484	1167.779052734375	1168.455322265625	-13.12345027923584	1416.252197265625	1155.13818359375	141.9035339355469	1332.043334960938	1170.026489257812	-60.69470977783203	1273.155029296875	1228.119995117188	-19.8386173248291	1376.190307617188	1050.576782226562	72.05220031738281	1389.598388671875	1006.896789550781	71.87014770507812	1272.50390625	935.163330078125	132.7910461425781	1081.23046875	919.08740234375	63.78435516357422	1048.331665039062	955.91943359375	236.2463073730469	880.6034545898438	1005.728576660156	222.5451965332031	862.6571044921875	926.4443359375	172.2499542236328	981.0286254882812	918.845703125	270.52685546875	702.7297973632812	1003.75927734375	244.3465270996094	780.0491943359375	942.6429443359375	275.6196899414062	788.4655151367188	997.7049560546875	44.11587524414062	1397.52001953125	1317.364379882812	37.84823608398438	1334.642456054688	1380.822143554688	106.9811553955078	1084.139404296875	1443.067749023438	80.44441223144531	1060.401611328125	1356.619384765625	277.7719421386719	897.4000854492188	1427.77734375	242.0792083740234	884.9854125976562	1491.23779296875	148.8406982421875	1029.875732421875	1463.764770507812	313.7194213867188	727.3768310546875	1451.006103515625	317.2206420898438	800.4584350585938	1456.593994140625	263.9945678710938	800.5890502929688	1499.250366210938	19.32688331604004	1586.435424804688	1249.894287109375	169.0650329589844	1622.588989257812	1122.3583984375	150.6494445800781	1614.588745117188	1243.747192382812	25.91099548339844	1591.85107421875	1087.834228515625	33.54504013061523	970.9996337890625	991.5476684570312	42.06973266601562	968.8577880859375	1350.641235351562	174.1421356201172	971.9630126953125	1292.494140625	151.5559539794922	964.9453125	1030.364990234375	75.97080230712891	473.6625671386719	1013.607055664062	68.05632019042969	615.549072265625	1001.556640625	-3.794939041137695	42.18629455566406	1060.302612304688	31.82402801513672	243.0535736083984	1025.979125976562	211.4836883544922	42.82229232788086	1116.026611328125	132.2521209716797	41.84328079223633	1149.750732421875	122.6445846557617	42.32295227050781	1044.71630859375	-42.39175415039062	39.3275146484375	1118.000854492188	72.88637542724609	476.1700134277344	1327.824951171875	116.8633270263672	738.2692260742188	1346.749389648438	33.01460266113281	56.63845443725586	1291.40771484375	83.16349792480469	351.9853820800781	1312.946411132812	214.9915008544922	40.80148315429688	1234.70068359375	140.2492828369141	45.02757263183594	1202.398193359375	115.6384124755859	45.77004623413086	1300.559936523438	-38.69248580932617	45.13595962524414	1235.276245117188	
4	0.03	-43.74848175048828	997.2350463867188	1237.646850585938	-52.06842803955078	988.2000122070312	1105.22119140625	-44.54451751708984	1064.840942382812	1174.3828125	190.9951629638672	1211.740478515625	1174.477416992188	-52.43828201293945	1167.794921875	1168.358154296875	-13.12635612487793	1416.23681640625	1155.10400390625	141.9335021972656	1332.034301757812	1170.128295898438	-60.75585174560547	1273.060668945312	1227.941772460938	-19.72658538818359	1376.21435546875	1050.575927734375	72.23702239990234	1389.706298828125	1006.968811035156	71.98941040039062	1272.769653320312	935.0792236328125	132.8079833984375	1081.520629882812	918.4262084960938	63.94303512573242	1048.520874023438	955.4711303710938	236.906005859375	881.0260009765625	1004.363464355469	222.8169708251953	863.0820922851562	925.1594848632812	172.3071441650391	981.3734130859375	917.8941040039062	271.6530151367188	703.2471923828125	1002.080749511719	244.88330078125	780.5269165039062	941.1943969726562	276.490478515625	788.9901733398438	996.0476684570312	43.86279678344727	1397.41015625	1317.391235351562	37.48818206787109	1334.553344726562	1380.805541992188	105.9411773681641	1083.936157226562	1443.108032226562	80.08000183105469	1060.145141601562	1356.681884765625	276.5891418457031	897.0053100585938	1428.906616210938	240.6365661621094	884.6377563476562	1492.076171875	147.7099761962891	1029.720336914062	1464.232177734375	312.0760803222656	726.924072265625	1452.339477539062	315.7770080566406	800.0216674804688	1457.87353515625	262.2992248535156	800.2603759765625	1500.3466796875	18.59649658203125	1586.551147460938	1249.376586914062	169.733154296875	1622.328247070312	1123.497436523438	150.0161743164062	1614.385498046875	1244.613891601562	26.91118621826172	1592.00048828125	1087.549438476562	33.6992073059082	971.0386962890625	991.5383911132812	41.96696090698242	968.8587036132812	1350.641723632812	174.0853118896484	971.9672241210938	1292.550415039062	151.7203521728516	964.923095703125	1030.399780273438	76.05619812011719	473.6529846191406	1013.611145019531	68.21931457519531	615.5394897460938	1001.561462402344	-3.813692092895508	42.18967437744141	1060.305297851562	31.88071060180664	243.0492095947266	1025.979370117188	211.4883117675781	42.81805801391602	1116.031860351562	132.2459564208984	41.83460235595703	1149.757568359375	122.6450119018555	42.32497787475586	1044.723876953125	-42.39322280883789	39.28885269165039	1118.038208007812	72.90511322021484	476.1747131347656	1327.810791015625	116.7559280395508	738.2487182617188	1346.793212890625	33.01877975463867	56.64240646362305	1291.406005859375	83.21267700195312	351.9984436035156	1312.922241210938	214.9973907470703	40.80371475219727	1234.699951171875	140.2497253417969	45.02719879150391	1202.396484375	115.6447372436523	45.77978515625	1300.555419921875	-38.70029067993164	45.1515007019043	1235.270263671875	
